# xmcd CD database file
#
# Track frame offsets:
#	150
#	15895
#	29935
#	47807
#	61797
#	75795
#	92620
#	106575
#	122225
#	136515
#	151257
#	163452
#	185895
#
# Disc length: 2693 seconds
#
# Revision: 0
# Processed by: cddbd v1.4PL0 Copyright (c) Steve Scherf et al.
# Submitted via: cdripper 1.0.4
#
DISCID=9a0a830d
DTITLE=Kikki Danielsson - Vägen Hem Till Dej
DYEAR=1991
DGENRE=Country
TTITLE0=Vägen Hem Till Dej
TTITLE1=Vi Har Ett Eget Paradis
TTITLE2=En Annan Stad, En Annan Vän
TTITLE3=You're My World
TTITLE4=Kärlekens Vindar
TTITLE5=Den Enda Sanna Kärleken
TTITLE6=Samma Vindar, Samma Hav
TTITLE7=Tell Him
TTITLE8=Det Största Som Hänt
TTITLE9=Inget Stoppar Oss Nu
TTITLE10=Ge Dig Av
TTITLE11=En Ton i Trädens Kronor
TTITLE12=Du Gör Mig Galen
EXTD=YEAR: 1991
EXTT0=
EXTT1=
EXTT2=
EXTT3=
EXTT4=
EXTT5=
EXTT6=
EXTT7=
EXTT8=
EXTT9=
EXTT10=
EXTT11=
EXTT12=
PLAYORDER=
